# 3ds Max Wavefront OBJ Exporter v0.97b - (c)2007 guruware
# File Created: 27.01.2019 14:09:23

#
# object desk
#

v  -38.133087 -27.735849 -0.000002
v  46.072586 -27.735863 -0.000002
v  -38.133057 13.477581 -0.000002
v  46.072617 13.477581 -0.000002
v  -38.133118 -6.463307 35.452721
v  46.072586 -6.463324 35.452721
v  -38.133087 34.750122 35.452721
v  46.072586 34.750122 35.452721
v  -0.944412 -27.735853 -0.000002
v  -0.944473 -6.463306 35.452721
v  -0.944443 34.750122 35.452721
v  42.156418 -27.735847 -0.000002
v  42.156387 34.750122 35.452728
v  42.156387 -6.463324 35.452721
v  46.072586 -8.640565 31.824156
v  -38.133118 -8.640565 31.824154
v  46.072586 32.572865 31.824156
v  -38.133118 32.572899 31.824154
v  -0.944443 -8.640564 31.824156
v  42.156387 -8.640549 31.824156
v  -38.133057 10.657560 -0.000002
v  -38.133057 -24.915796 -0.000002
v  46.072586 -24.915829 -0.000002
v  46.072617 10.657560 -0.000002
v  46.072586 -3.643287 35.452721
v  46.072586 31.930084 35.452721
v  -38.133118 31.930084 35.452721
v  -38.133118 -3.643287 35.452721
v  -0.944473 -3.643271 35.452721
v  -0.944473 31.930107 35.452721
v  42.156387 -3.643287 35.452721
v  42.156387 31.930103 35.452721
v  46.072586 29.752846 31.824156
v  46.072586 -5.820529 31.824156
v  -38.133118 -5.820513 31.824156
v  -38.133118 29.752846 31.824156
v  42.025986 -24.915829 -0.000002
v  42.025986 10.657560 -0.000002
v  42.025986 29.752846 31.824156
v  42.025955 -5.820513 31.824156
v  -0.944443 14.235460 -0.000002
v  -0.944443 33.330761 31.824156
# 42 vertices

vn -0.000000 -0.000000 1.000000
vn 0.000000 0.000000 1.000000
vn 0.000000 0.000000 1.000000
vn 0.000000 0.000000 1.000000
vn -0.000000 -0.933596 0.358327
vn -0.000000 -0.933595 0.358330
vn -0.000000 -0.933595 0.358329
vn -0.000000 -0.933596 0.358327
vn -1.000000 0.000014 -0.000008
vn -1.000000 0.000000 -0.000001
vn -1.000000 0.000001 -0.000000
vn -1.000000 -0.000000 -0.000003
vn 0.000000 -0.000001 1.000000
vn -0.000000 -0.000000 1.000000
vn 0.000000 0.000000 1.000000
vn 0.000000 0.000000 1.000000
vn 0.000000 0.000000 1.000000
vn 0.000000 -0.000001 1.000000
vn 0.000000 0.000000 1.000000
vn 0.000000 0.000000 1.000000
vn -0.000002 -0.933596 0.358327
vn -0.000002 -0.933596 0.358328
vn -0.000001 -0.933596 0.358327
vn -0.000002 -0.933596 0.358327
vn -0.000000 -0.933595 0.358331
vn 0.000000 -0.933595 0.358331
vn -0.000000 -0.933595 0.358329
vn -0.000000 -0.933595 0.358330
vn 1.000000 0.000000 0.000000
vn 1.000000 0.000000 0.000000
vn 1.000000 0.000000 0.000000
vn 1.000000 0.000000 0.000000
vn -1.000000 0.000014 -0.000005
vn -1.000000 0.000001 -0.000000
vn -1.000000 0.000000 -0.000001
vn -1.000000 0.000000 0.000000
vn 0.000000 -0.933596 0.358326
vn -0.000000 -0.933595 0.358331
vn -0.000000 -0.933595 0.358330
vn -0.000001 -0.933596 0.358327
vn -0.000001 -0.933596 0.358328
vn 0.000000 -0.933596 0.358326
vn -0.000001 -0.933596 0.358327
vn -0.000002 -0.933596 0.358328
vn -0.000000 0.000000 1.000000
vn 0.000000 0.000000 1.000000
vn 0.000000 0.000000 1.000000
vn -0.000000 -0.000000 1.000000
vn 0.000000 0.000000 1.000000
vn 0.000000 0.000000 1.000000
vn 0.000000 0.000000 1.000000
vn 0.000000 0.000000 1.000000
vn 1.000000 0.000000 0.000001
vn 1.000000 0.000000 0.000000
vn 1.000000 0.000000 0.000000
vn 1.000000 0.000000 0.000001
vn 1.000000 0.000000 0.000000
vn 1.000000 0.000000 0.000000
vn 1.000000 0.000000 0.000000
vn 1.000000 0.000000 0.000000
vn -1.000000 0.000022 -0.000011
vn -1.000000 0.000000 -0.000001
vn -1.000000 0.000000 -0.000001
vn -1.000000 0.000014 -0.000008
vn -1.000000 0.000000 0.000006
vn -1.000000 0.000000 -0.000003
vn -1.000000 -0.000000 -0.000003
vn -1.000000 0.000001 -0.000000
vn 0.000000 -0.000003 1.000000
vn -0.000000 0.000000 1.000000
vn -0.000000 -0.000000 1.000000
vn 0.000000 -0.000001 1.000000
vn 0.000000 0.000000 1.000000
vn 0.000000 0.000000 1.000000
vn 0.000000 0.000000 1.000000
vn 0.000000 0.000000 1.000000
vn 0.000000 -0.000001 1.000000
vn 0.000000 -0.000003 1.000000
vn 0.000000 -0.000001 1.000000
vn 0.000000 0.000000 1.000000
vn 0.000000 0.000000 1.000000
vn 0.000000 0.000000 1.000000
vn 0.000000 0.000000 1.000000
vn 0.000000 0.000000 1.000000
vn 1.000000 0.000000 0.000000
vn 1.000000 0.000000 0.000000
vn 1.000000 0.000000 0.000000
vn 1.000000 0.000000 0.000000
vn 1.000000 0.000000 0.000000
vn 1.000000 0.000000 0.000000
vn 1.000000 0.000000 0.000000
vn 1.000000 0.000000 0.000000
vn -1.000000 0.000016 -0.000003
vn -1.000000 0.000000 0.000006
vn -1.000000 0.000001 -0.000000
vn -1.000000 0.000014 -0.000005
vn -1.000000 0.000000 -0.000001
vn -1.000000 0.000000 0.000000
vn -1.000000 0.000000 0.000000
vn -1.000000 0.000000 -0.000001
vn 0.000000 -0.933596 0.358327
vn 0.000000 -0.933596 0.358327
vn 0.000000 -0.933596 0.358327
vn 0.000000 -0.933596 0.358327
vn 0.000001 0.933596 -0.358327
vn 0.000001 0.933596 -0.358327
vn 0.000001 0.933596 -0.358327
vn 0.000001 0.933596 -0.358327
vn -0.994719 -0.095817 0.036775
vn -0.994719 -0.095817 0.036775
vn -0.994719 -0.095817 0.036775
vn -0.994719 -0.095817 0.036775
vn 1.000000 0.000001 0.000000
vn 1.000000 0.000001 0.000000
vn 1.000000 0.000001 0.000000
vn 1.000000 0.000001 0.000000
# 116 vertex normals

g desk
s 4
f 30//1 27//2 28//3 29//4 
s 8
f 9//5 19//6 16//7 1//8 
s 64
f 22//9 35//10 36//11 21//12 
s 4
f 32//13 30//14 29//15 31//16 
f 26//17 32//18 31//19 25//20 
s 8
f 2//21 15//22 20//23 12//24 
f 10//25 5//26 16//27 19//28 
s 16
f 25//29 34//30 33//31 26//32 
s 64
f 27//33 36//34 35//35 28//36 
s 8
f 14//37 10//38 19//39 20//40 
f 6//41 14//42 20//43 15//44 
s 4
f 11//45 7//46 27//47 30//48 
f 5//49 10//50 29//51 28//52 
s 16
f 4//53 17//54 33//55 24//56 
f 15//57 2//58 23//59 34//60 
s 64
f 1//61 16//62 35//63 22//64 
f 18//65 3//66 21//67 36//68 
s 4
f 13//69 11//70 30//71 32//72 
f 10//73 14//74 31//75 29//76 
f 8//77 13//78 32//79 26//80 
f 14//81 6//82 25//83 31//84 
s 16
f 6//85 15//86 34//87 25//88 
f 17//89 8//90 26//91 33//92 
s 64
f 7//93 18//94 36//95 27//96 
f 16//97 5//98 28//99 35//100 
s off
f 24//101 33//102 39//103 38//104 
f 34//105 23//106 37//107 40//108 
s 1
f 37//109 12//110 20//111 40//112 
s off
f 19//113 9//114 41//115 42//116 
# 29 polygons

