# 3ds Max Wavefront OBJ Exporter v0.97b - (c)2007 guruware
# File Created: 27.01.2019 14:46:09

#
# object nightstand
#

v  -8.113937 0.000298 22.269062
v  15.225052 0.000313 22.269064
v  -8.113937 17.228512 22.269064
v  15.225044 17.228497 22.269064
v  16.183067 -1.840014 20.380610
v  -9.071976 -1.840014 20.380610
v  16.183067 16.802570 20.380610
v  -9.071976 16.802540 20.380608
v  17.866425 -1.980713 22.269064
v  -10.755310 -1.980745 22.269064
v  -10.755310 19.209553 22.269064
v  17.866432 19.209553 22.269062
v  -10.755310 -3.113848 20.380615
v  17.866425 -3.113848 20.380613
v  17.866425 18.076405 20.380615
v  -10.755310 18.076405 20.380615
v  16.183075 -12.941837 1.878328
v  16.183075 5.700718 1.878328
v  -9.071976 5.700733 1.878329
v  -9.071960 -12.941837 1.878328
v  -10.501068 5.650905 0.008965
v  -10.501068 -15.135302 0.008965
v  17.612190 -15.135349 0.008965
v  17.612183 5.650905 0.008965
v  17.612183 -14.366077 1.290998
v  -10.501068 -14.366093 1.290998
v  -10.501068 6.420146 1.290998
v  17.612190 6.420162 1.290998
# 28 vertices

vn -0.000000 -0.000000 1.000000
vn -0.000000 -0.000000 1.000000
vn -0.000000 -0.000000 1.000000
vn -0.000000 -0.000000 1.000000
vn 0.000000 -0.857478 0.514520
vn 0.000000 -0.857478 0.514521
vn -0.000001 -0.857496 0.514491
vn -0.000001 -0.857496 0.514490
vn 1.000000 -0.000000 -0.000005
vn 1.000000 -0.000000 -0.000006
vn 1.000000 0.000000 0.000005
vn 1.000000 0.000000 0.000006
vn -1.000000 0.000000 0.000000
vn -1.000000 0.000000 0.000000
vn -1.000000 0.000000 0.000000
vn -1.000000 0.000000 0.000000
vn 0.000000 -0.857480 0.514517
vn 0.000001 -0.857486 0.514507
vn 0.000001 -0.857486 0.514507
vn 0.000000 -0.857480 0.514517
vn 1.000000 -0.000000 -0.000004
vn 1.000000 -0.000000 0.000000
vn 1.000000 -0.000000 -0.000000
vn 1.000000 0.000000 -0.000004
vn -1.000000 0.000000 0.000000
vn -1.000000 0.000000 0.000000
vn -1.000000 0.000000 0.000000
vn -1.000000 0.000000 0.000000
vn -0.000000 0.000000 1.000000
vn -0.000000 0.000000 1.000000
vn -0.000000 0.000000 1.000000
vn -0.000000 0.000000 1.000000
vn 0.000000 -0.000000 1.000000
vn 0.000000 -0.000000 1.000000
vn 0.000000 -0.000000 1.000000
vn 0.000000 -0.000000 1.000000
vn 0.000000 0.000000 1.000000
vn 0.000000 0.000000 1.000000
vn 0.000000 0.000000 1.000000
vn 0.000000 0.000000 1.000000
vn 0.000000 0.000000 1.000000
vn 0.000000 0.000000 1.000000
vn 0.000000 0.000000 1.000000
vn 0.000000 0.000000 1.000000
vn 0.000000 -0.857484 0.514511
vn 0.000000 -0.857484 0.514511
vn 0.000000 -0.857484 0.514511
vn 0.000000 -0.857484 0.514511
vn 1.000000 0.000000 0.000000
vn 1.000000 0.000000 0.000000
vn 1.000000 0.000000 0.000000
vn 1.000000 0.000000 0.000000
vn -1.000000 -0.000000 -0.000000
vn -1.000000 0.000000 0.000000
vn -1.000000 -0.000000 -0.000000
vn -1.000000 -0.000001 -0.000000
vn 0.000000 -0.381235 0.924478
vn 0.000000 -0.381235 0.924478
vn 0.000000 -0.381235 0.924478
vn 0.000000 -0.381235 0.924478
vn -0.380128 -0.000000 0.924934
vn -0.380128 -0.000000 0.924934
vn -0.380128 -0.000000 0.924934
vn -0.380128 -0.000000 0.924934
vn 0.380126 -0.000000 0.924935
vn 0.380126 -0.000000 0.924935
vn 0.380126 -0.000000 0.924935
vn 0.380126 -0.000000 0.924935
# 68 vertex normals

g nightstand
s 4
f 1//1 2//2 4//3 3//4 
s 8
f 23//5 25//6 26//7 22//8 
s 16
f 24//9 28//10 25//11 23//12 
s 64
f 22//13 26//14 27//15 21//16 
s 8
f 9//17 10//18 13//19 14//20 
s 16
f 12//21 9//22 14//23 15//24 
s 64
f 10//25 11//26 16//27 13//28 
s off
f 2//29 1//30 10//31 9//32 
f 1//33 3//34 11//35 10//36 
f 3//37 4//38 12//39 11//40 
f 4//41 2//42 9//43 12//44 
s 8
f 5//45 6//46 20//47 17//48 
s 16
f 7//49 5//50 17//51 18//52 
s 64
f 6//53 8//54 19//55 20//56 
s off
f 17//57 20//58 26//59 25//60 
f 20//61 19//62 27//63 26//64 
f 18//65 17//66 25//67 28//68 
# 17 polygons

