# 3ds Max Wavefront OBJ Exporter v0.97b - (c)2007 guruware
# File Created: 27.01.2019 13:50:01

#
# object couch
#

v  -40.777847 -69.632980 -0.000002
v  63.452553 -69.632980 -0.000002
v  -40.777847 -24.055222 -0.000002
v  63.452538 -11.593636 -0.000002
v  -40.777847 -58.731842 18.167805
v  63.452538 -58.731842 18.167805
v  -40.777847 -13.154076 18.167805
v  63.452538 -0.692505 18.167805
v  7.548447 -11.593636 -0.000002
v  7.548431 -69.632980 -0.000002
v  7.548431 -58.731842 18.167805
v  7.548431 -0.692513 18.167807
v  7.548431 48.771641 -0.000002
v  -40.777847 48.771660 -0.000002
v  -40.777847 59.672802 18.167805
v  7.548431 59.672802 18.167805
v  -26.618896 -58.731842 18.167805
v  -26.618896 -69.632980 -0.000002
v  -26.618896 -13.154076 18.167805
v  -40.777847 -57.782791 -0.000002
v  63.452553 -57.782791 -0.000002
v  63.452553 -46.881638 18.167807
v  -40.777847 -46.881638 18.167805
v  7.548431 -46.881638 18.167805
v  -26.618896 -46.881622 18.167805
v  7.548431 37.854164 -0.000002
v  -40.777847 37.854164 -0.000002
v  -40.777847 48.755306 18.167805
v  7.548431 48.755291 18.167807
v  -26.618896 48.755306 18.167807
v  -40.777847 -50.594284 31.729822
v  7.548431 -53.190079 27.403692
v  7.548431 -41.339859 27.403692
v  -26.618896 -41.339859 27.403692
v  -26.618896 -5.016518 31.729822
v  -26.618896 54.297092 27.403696
v  7.548431 54.297073 27.403692
v  7.548431 65.214569 27.403692
v  -26.618896 65.214584 27.403692
v  -40.777847 67.810364 31.729822
v  -40.777847 56.892868 31.729822
v  -40.777847 -5.016518 31.729822
v  -40.777847 -38.744080 31.729822
v  -26.618912 6.333458 50.645660
v  -26.618912 68.242844 50.645660
v  -40.777863 76.564545 46.319527
v  -40.777863 68.242859 50.645660
v  -40.777863 6.333458 50.645660
v  -40.777863 -27.394089 50.645660
v  -40.777863 -41.840088 46.319534
v  -26.618912 -34.918182 50.645660
v  -26.618912 74.834206 50.645660
v  -40.777863 74.834206 50.645660
v  -40.777863 -34.918198 50.645660
v  -26.618912 -38.811722 49.564133
v  -26.618912 77.429855 49.564125
v  -40.777863 77.429840 49.564125
v  -40.777863 -38.811737 49.564133
v  -26.618896 -46.268173 31.729822
v  7.548431 -46.268173 31.729822
v  7.548431 -43.070206 31.729822
v  -26.618912 -27.394089 50.645660
v  -26.618896 61.218975 31.729822
v  7.548431 61.218975 31.729818
v  7.548431 63.484226 31.729818
v  -26.618896 63.484241 31.729822
v  -26.618896 -50.161713 30.648289
v  -26.618912 -41.840088 46.319534
v  -26.618896 -53.190079 27.403692
v  7.548431 -50.161713 30.648293
v  7.548431 -40.474533 30.648289
v  -26.618896 -43.070206 31.729822
v  -26.618896 -40.474533 30.648289
v  -26.618896 57.325451 30.648289
v  7.548431 57.325436 30.648289
v  7.548431 66.079880 30.648289
v  -26.618912 76.564545 46.319527
v  -26.618896 66.079880 30.648289
# 78 vertices

vn 0.000000 0.000000 1.000000
vn 0.000000 0.000000 1.000000
vn 0.000000 0.000000 1.000000
vn 0.000000 0.000000 1.000000
vn 0.000000 -0.933596 0.358327
vn 0.000000 -0.933596 0.358327
vn 0.000000 -0.933596 0.358327
vn 0.000000 -0.933596 0.358327
vn 1.000000 -0.000002 0.000001
vn 1.000000 0.000000 0.000001
vn 1.000000 -0.000000 0.000001
vn 1.000000 -0.000001 0.000000
vn -0.000000 0.933596 -0.358327
vn 0.000000 0.933596 -0.358327
vn -0.000000 0.933596 -0.358327
vn -0.000000 0.933596 -0.358327
vn -1.000000 0.000000 0.000000
vn -1.000000 0.000000 0.000000
vn -1.000000 0.000000 0.000000
vn -1.000000 0.000000 0.000000
vn 0.000000 -0.000000 1.000000
vn 0.000000 0.000000 1.000000
vn -0.000000 -0.000000 1.000000
vn -0.000000 -0.000000 1.000000
vn 0.000000 -0.933596 0.358327
vn 0.000000 -0.933596 0.358327
vn 0.000000 -0.933596 0.358327
vn 0.000000 -0.933596 0.358327
vn -1.000000 0.000000 0.000000
vn -1.000000 0.000000 0.000000
vn -1.000000 0.000000 0.000000
vn -1.000000 0.000000 0.000000
vn -0.000000 0.000000 1.000000
vn -0.000000 0.000000 1.000000
vn -0.000000 0.000000 1.000000
vn -0.000000 0.000000 1.000000
vn 1.000000 0.000000 0.000000
vn 1.000000 0.000000 0.000000
vn 1.000000 0.000000 0.000000
vn 1.000000 0.000000 0.000000
vn 0.000000 0.000000 1.000000
vn 0.000000 0.000000 1.000000
vn 0.000000 0.000000 1.000000
vn 0.000000 0.000000 1.000000
vn 0.000000 -0.933596 0.358327
vn 0.000000 -0.933596 0.358327
vn 0.000000 -0.933596 0.358327
vn 0.000000 -0.933596 0.358327
vn 0.000000 -0.000000 1.000000
vn 0.000000 -0.000000 1.000000
vn 0.000000 -0.000000 1.000000
vn 0.000000 -0.000000 1.000000
vn 0.000000 0.000000 1.000000
vn 0.000000 0.000000 1.000000
vn 0.000000 0.000000 1.000000
vn 0.000000 0.000000 1.000000
vn 1.000000 -0.000001 0.000000
vn 1.000000 -0.000000 0.000001
vn 1.000000 0.000001 -0.000000
vn 1.000000 0.000001 -0.000000
vn -1.000000 0.000000 0.000000
vn -1.000000 0.000000 0.000000
vn -1.000000 0.000000 0.000000
vn -1.000000 0.000000 0.000000
vn 0.000000 -0.000000 1.000000
vn -0.000000 -0.000000 1.000000
vn -0.000000 0.000000 1.000000
vn 0.000000 -0.000000 1.000000
vn -0.000000 -0.000000 1.000000
vn 0.000000 -0.000000 1.000000
vn 0.000000 -0.000000 1.000000
vn -0.000000 0.000000 1.000000
vn -1.000000 0.000000 0.000000
vn -1.000000 0.000000 0.000000
vn -1.000000 0.000000 0.000000
vn -1.000000 0.000000 0.000000
vn -0.000000 0.000000 1.000000
vn -0.000000 0.000000 1.000000
vn -0.000000 0.000000 1.000000
vn -0.000000 0.000000 1.000000
vn 1.000000 0.000000 0.000000
vn 1.000000 0.000000 0.000000
vn 1.000000 0.000000 0.000000
vn 1.000000 0.000000 0.000000
vn 0.000000 0.000000 1.000000
vn 0.000000 0.000000 1.000000
vn 0.000000 0.000000 1.000000
vn 0.000000 0.000000 1.000000
vn -0.000000 -0.933596 0.358328
vn -0.000000 -0.933596 0.358328
vn -0.000000 -0.933596 0.358328
vn -0.000000 -0.933596 0.358328
vn 0.000000 -0.933596 0.358327
vn 0.000000 -0.933596 0.358327
vn 0.000000 -0.933596 0.358327
vn 0.000000 -0.933596 0.358327
vn 1.000000 0.000000 0.000000
vn 1.000000 0.000000 0.000000
vn 1.000000 0.000000 0.000000
vn 1.000000 0.000000 0.000000
vn 1.000000 0.000000 0.000000
vn 1.000000 0.000000 0.000000
vn 1.000000 0.000000 0.000000
vn 1.000000 0.000000 0.000000
vn 1.000000 0.000000 0.000000
vn 1.000000 0.000000 0.000000
vn 1.000000 0.000000 0.000000
vn 1.000000 0.000000 0.000000
vn 0.000000 0.933596 -0.358328
vn 0.000000 0.933596 -0.358328
vn 0.000000 0.933596 -0.358328
vn 0.000000 0.933596 -0.358328
vn 1.000000 0.000000 0.000000
vn 1.000000 0.000000 0.000000
vn 1.000000 0.000000 0.000000
vn 1.000000 0.000000 0.000000
vn 1.000000 0.000000 0.000000
vn 1.000000 0.000000 0.000000
vn 1.000000 0.000000 0.000000
vn 1.000000 0.000000 0.000000
vn 1.000000 0.000000 0.000000
vn 1.000000 0.000000 0.000000
vn 1.000000 0.000000 0.000000
vn 1.000000 0.000000 0.000000
vn 1.000000 0.000000 0.000000
vn 1.000000 0.000000 0.000000
vn -0.000000 -0.933596 0.358328
vn -0.000000 -0.933596 0.358328
vn -0.000000 -0.933596 0.358328
vn -0.000000 -0.933596 0.358328
vn 1.000000 0.000000 0.000000
vn 1.000000 0.000000 0.000000
vn 1.000000 0.000000 0.000000
vn 1.000000 0.000000 0.000000
vn 1.000000 0.000000 0.000000
vn 1.000000 0.000000 0.000000
vn 1.000000 0.000000 0.000000
vn 1.000000 0.000000 0.000000
vn 1.000000 0.000000 0.000000
vn 1.000000 0.000000 0.000000
vn 1.000000 0.000000 0.000000
vn 1.000000 0.000000 0.000000
vn -1.000000 0.000000 0.000000
vn -1.000000 0.000000 0.000000
vn -1.000000 0.000000 0.000000
vn -1.000000 0.000000 0.000000
vn -1.000000 0.000000 0.000000
vn -1.000000 0.000000 0.000000
vn -1.000000 0.000000 0.000000
vn -1.000000 0.000000 0.000000
vn -1.000000 0.000000 0.000000
vn -1.000000 0.000000 0.000000
vn -1.000000 0.000000 0.000000
vn -1.000000 0.000000 0.000000
vn -1.000000 0.000000 0.000000
vn -1.000000 0.000000 0.000000
vn -1.000000 0.000000 0.000000
vn -1.000000 0.000000 0.000000
vn 1.000000 0.000000 0.000000
vn 1.000000 0.000000 0.000000
vn 1.000000 0.000000 0.000000
vn 1.000000 0.000000 0.000000
vn 1.000000 -0.000001 0.000001
vn 1.000000 -0.000001 0.000001
vn 1.000000 -0.000001 0.000001
vn 1.000000 -0.000001 0.000001
vn 1.000000 -0.000000 0.000001
vn 1.000000 -0.000000 0.000001
vn 1.000000 -0.000000 0.000001
vn 1.000000 -0.000000 0.000001
vn 1.000000 0.000001 0.000001
vn 1.000000 0.000001 0.000001
vn 1.000000 0.000001 0.000001
vn 1.000000 0.000000 0.000001
vn 1.000000 0.000000 0.000001
vn 1.000000 0.000000 0.000001
vn 1.000000 0.000000 0.000001
vn 1.000000 0.000001 0.000000
vn 1.000000 0.000001 0.000000
vn 1.000000 0.000001 0.000000
vn 1.000000 0.000001 0.000000
vn 1.000000 -0.000000 0.000001
vn 1.000000 -0.000000 0.000001
vn 1.000000 -0.000000 0.000001
vn 1.000000 -0.000000 0.000001
vn 1.000000 0.000000 0.000001
vn 1.000000 0.000000 0.000001
vn 1.000000 0.000000 0.000001
vn -1.000000 0.000000 0.000000
vn -1.000000 0.000000 0.000000
vn -1.000000 0.000000 0.000000
vn -1.000000 0.000000 0.000000
vn -1.000000 -0.000000 -0.000001
vn -1.000000 -0.000000 -0.000001
vn -1.000000 -0.000000 -0.000001
vn -1.000000 -0.000000 -0.000001
vn -1.000000 -0.000000 -0.000001
vn -1.000000 -0.000000 -0.000001
vn -1.000000 -0.000000 -0.000001
vn -1.000000 -0.000000 -0.000001
vn -1.000000 0.000000 -0.000001
vn -1.000000 0.000000 -0.000001
vn -1.000000 0.000000 -0.000001
vn -1.000000 0.000000 -0.000001
vn -1.000000 0.000002 -0.000002
vn -1.000000 0.000002 -0.000002
vn -1.000000 0.000002 -0.000002
vn -1.000000 0.000002 -0.000002
vn -1.000000 0.000000 -0.000001
vn -1.000000 0.000000 -0.000001
vn -1.000000 0.000000 -0.000001
vn -1.000000 0.000000 -0.000001
vn -0.000000 -0.933596 0.358328
vn -0.000000 -0.933596 0.358328
vn -0.000000 -0.933596 0.358328
vn -0.000000 -0.933596 0.358328
vn -0.000000 0.545809 0.837910
vn -0.000000 0.545809 0.837910
vn -0.000000 0.545809 0.837910
vn -0.000000 0.545809 0.837910
vn 0.000000 -0.398317 0.917248
vn 0.000000 -0.398317 0.917248
vn 0.000000 -0.398317 0.917248
vn 0.000000 -0.398317 0.917248
vn -0.000000 0.985759 -0.168162
vn -0.000000 0.985759 -0.168162
vn -0.000000 0.985759 -0.168162
vn -0.000000 0.985759 -0.168162
vn 0.000000 -0.858616 0.512620
vn 0.000000 -0.858616 0.512620
vn 0.000000 -0.858616 0.512620
vn 0.000000 -0.858616 0.512620
vn 1.000000 -0.000005 0.000003
vn 1.000000 -0.000005 0.000003
vn 1.000000 -0.000005 0.000003
vn 1.000000 0.000005 -0.000001
vn 1.000000 0.000005 -0.000001
vn 1.000000 0.000005 -0.000001
vn -0.000000 -0.398318 0.917247
vn -0.000000 -0.398318 0.917247
vn -0.000000 -0.398318 0.917247
vn -0.000000 -0.398318 0.917247
vn 0.000000 0.545805 0.837912
vn 0.000000 0.545805 0.837912
vn 0.000000 0.545805 0.837912
vn 0.000000 0.545805 0.837912
vn -0.000000 -0.398318 0.917247
vn -0.000000 -0.398318 0.917247
vn -0.000000 -0.398318 0.917247
vn -0.000000 -0.398318 0.917247
vn 0.000000 0.545808 0.837910
vn 0.000000 0.545808 0.837910
vn 0.000000 0.545808 0.837910
vn 0.000000 0.545808 0.837910
vn 1.000000 -0.000001 0.000002
vn 1.000000 -0.000001 0.000002
vn 1.000000 -0.000001 0.000002
vn 1.000000 0.000001 0.000001
vn 1.000000 0.000001 0.000001
vn 1.000000 0.000001 0.000001
vn -0.000000 -0.858615 0.512621
vn -0.000000 -0.858615 0.512621
vn -0.000000 -0.858615 0.512621
vn -0.000000 -0.858615 0.512621
vn 0.000000 0.985759 -0.168166
vn 0.000000 0.985759 -0.168166
vn 0.000000 0.985759 -0.168166
vn 0.000000 0.985759 -0.168166
vn -0.000000 -0.858615 0.512621
vn -0.000000 -0.858615 0.512621
vn -0.000000 -0.858615 0.512621
vn -0.000000 -0.858615 0.512621
vn 0.000000 0.985759 -0.168162
vn 0.000000 0.985759 -0.168162
vn 0.000000 0.985759 -0.168162
vn 0.000000 0.985759 -0.168162
# 276 vertex normals

g couch
s 4
f 49//1 54//2 51//3 62//4 
s 8
f 5//5 1//6 18//7 17//8 
s 16
f 6//9 2//10 21//11 22//12 
s 32
f 8//13 4//14 9//15 12//16 
s 64
f 7//17 3//18 20//19 23//20 
s 4
f 24//21 11//22 6//23 22//24 
s 8
f 11//25 10//26 2//27 6//28 
s off
f 27//29 3//30 7//31 28//32 
f 47//33 48//34 44//35 45//36 
f 29//37 12//38 9//39 26//40 
s 4
f 72//41 59//42 60//43 61//44 
s 8
f 17//45 18//46 10//47 11//48 
s off
f 30//49 19//50 12//51 29//52 
s 4
f 49//53 62//54 44//55 48//56 
s 16
f 22//57 21//58 4//59 8//60 
s 64
f 23//61 20//62 1//63 5//64 
s 4
f 24//65 22//66 8//67 12//68 
f 25//69 24//70 12//71 19//72 
s off
f 27//73 28//74 15//75 14//76 
f 47//77 45//78 52//79 53//80 
f 29//81 26//82 13//83 16//84 
f 63//85 64//86 65//87 66//88 
f 69//89 31//90 5//91 17//92 
f 32//93 69//94 17//95 11//96 
f 61//97 60//98 70//99 32//100 
f 61//101 32//102 11//103 24//104 
f 24//105 33//106 71//107 61//108 
f 34//109 33//110 24//111 25//112 
f 35//113 73//114 34//115 25//116 
f 35//117 25//118 19//119 
f 30//120 36//121 74//122 19//123 
f 74//124 35//125 19//126 
f 37//127 36//128 30//129 29//130 
f 65//131 64//132 75//133 37//134 
f 65//135 37//136 29//137 16//138 
f 16//139 38//140 76//141 65//142 
f 41//143 40//144 15//145 28//146 
f 42//147 41//148 28//149 7//150 
f 43//151 42//152 7//153 23//154 
f 31//155 43//156 23//157 5//158 
f 62//159 51//160 55//161 68//162 
f 62//163 68//164 59//165 72//166 
f 73//167 35//168 44//169 62//170 
f 73//171 62//172 72//173 
f 45//174 44//175 35//176 74//177 
f 77//178 56//179 52//180 63//181 
f 45//182 74//183 63//184 52//185 
f 77//186 63//187 66//188 
f 47//189 53//190 57//191 46//192 
f 47//193 46//194 40//195 41//196 
f 48//197 47//198 41//199 42//200 
f 49//201 48//202 42//203 43//204 
f 31//205 50//206 58//207 54//208 
f 54//209 49//210 43//211 31//212 
f 31//213 69//214 68//215 50//216 
f 52//217 56//218 57//219 53//220 
f 54//221 58//222 55//223 51//224 
f 56//225 77//226 46//227 57//228 
f 58//229 50//230 68//231 55//232 
f 67//233 68//234 69//235 
f 39//236 77//237 78//238 
f 59//239 67//240 70//241 60//242 
f 61//243 71//244 73//245 72//246 
f 63//247 74//248 75//249 64//250 
f 65//251 76//252 78//253 66//254 
f 67//255 59//256 68//257 
f 77//258 66//259 78//260 
f 67//261 69//262 32//263 70//264 
f 71//265 33//266 34//267 73//268 
f 74//269 36//270 37//271 75//272 
f 76//273 38//274 39//275 78//276 
# 63 polygons - 8 triangles

