# 3ds Max Wavefront OBJ Exporter v0.97b - (c)2007 guruware
# File Created: 25.01.2019 22:42:28

#
# object table
#

v  -21.725357 -23.643448 0.434137
v  40.988342 -23.643448 0.434137
v  -21.725357 -16.669025 17.622938
v  40.988342 -16.669025 17.622938
v  -21.725357 10.825130 17.622938
v  40.988342 10.825130 17.622938
v  -21.725357 4.809147 0.434137
v  40.988342 4.809147 0.434137
v  -21.725357 10.825130 17.622938
v  40.988342 10.825130 17.622938
v  -16.468380 -23.643448 0.434137
v  35.731369 -23.643448 0.434137
v  -16.468380 -16.669025 17.622938
v  35.731369 -16.669025 17.622938
v  35.731369 10.825130 17.622938
v  -16.468384 10.825130 17.622938
v  -16.468384 4.809147 0.434137
v  35.731369 4.809147 0.434137
v  35.731369 10.825130 17.622938
v  -16.468384 10.825130 17.622938
v  40.988342 -17.253656 16.182087
v  -21.725357 -17.253656 16.182087
v  -21.725357 10.449287 16.182087
v  40.988342 10.449287 16.182087
v  35.731369 -17.253656 16.182087
v  -16.468380 -17.253656 16.182087
v  35.731369 10.449287 16.182087
v  -16.468384 10.449287 16.182087
# 28 vertices

vn 0.000000 0.000000 1.000000
vn 0.000000 0.000000 1.000000
vn 0.000000 0.000000 1.000000
vn 0.000000 0.000000 1.000000
vn 0.000000 0.000000 1.000000
vn 0.000000 0.000000 1.000000
vn 0.000000 0.000000 1.000000
vn 0.000000 0.000000 1.000000
vn 0.000000 0.000000 1.000000
vn 0.000000 0.000000 1.000000
vn 0.000000 0.000000 1.000000
vn 0.000000 0.000000 1.000000
vn 0.000000 -0.926627 0.375982
vn 0.000000 -0.926627 0.375982
vn 0.000000 -0.926627 0.375982
vn 0.000000 -0.926627 0.375982
vn 0.000000 -0.926627 0.375982
vn 0.000000 -0.926627 0.375982
vn 0.000000 -0.926627 0.375982
vn 0.000000 -0.926627 0.375982
vn 0.000000 -0.941441 0.337178
vn 0.000000 -0.941441 0.337178
vn 0.000000 -0.941441 0.337178
vn 0.000000 -0.941441 0.337178
vn 0.000000 -0.941441 0.337178
vn 0.000000 -0.941441 0.337178
vn 0.000000 -0.941441 0.337178
vn 0.000000 -0.941441 0.337178
vn 0.000000 -0.926627 0.375982
vn 0.000000 -0.926627 0.375982
vn 0.000000 -0.926627 0.375982
vn 0.000000 -0.926627 0.375982
vn 0.000000 -0.967622 0.252402
vn 0.000000 -0.967622 0.252402
vn 0.000000 -0.967622 0.252402
vn 0.000000 -0.967622 0.252402
vn 0.000000 -0.926627 0.375982
vn 0.000000 -0.926627 0.375982
vn 0.000000 -0.926627 0.375982
vn 0.000000 -0.926627 0.375982
vn 0.000000 -0.926627 0.375982
vn 0.000000 -0.926627 0.375982
vn 0.000000 -0.926627 0.375982
vn 0.000000 -0.926627 0.375982
vn 0.000000 -0.967622 0.252402
vn 0.000000 -0.967622 0.252402
vn 0.000000 -0.967622 0.252402
vn 0.000000 -0.967622 0.252402
vn 0.000000 -0.967622 0.252402
vn 0.000000 -0.967622 0.252402
vn 0.000000 -0.967622 0.252402
vn 0.000000 -0.967622 0.252402
# 52 vertex normals

g table
s 4
f 14//1 15//2 16//3 13//4 
f 4//5 6//6 15//7 14//8 
f 5//9 3//10 13//11 16//12 
s 8
f 21//13 25//14 12//15 2//16 
f 1//17 11//18 26//19 22//20 
s off
f 24//21 27//22 18//23 8//24 
f 7//25 17//26 28//27 23//28 
s 8
f 14//29 13//30 26//31 25//32 
s off
f 19//33 20//34 28//35 27//36 
s 8
f 4//37 14//38 25//39 21//40 
f 13//41 3//42 22//43 26//44 
s off
f 10//45 19//46 27//47 24//48 
f 20//49 9//50 23//51 28//52 
# 13 polygons

