# 3ds Max Wavefront OBJ Exporter v0.97b - (c)2007 guruware
# File Created: 25.01.2019 22:42:47

#
# object Plane001
#

v  -54.599663 39.596897 1.325195
v  -54.599663 19.173376 1.325195
v  -54.599663 -1.250146 1.325195
v  -54.599663 -21.673666 1.325195
v  -54.599663 -42.097187 1.325195
v  -20.226151 39.596897 1.325195
v  -20.226151 19.173376 1.325195
v  -20.226151 -1.250145 1.325195
v  -20.226151 -21.673666 1.325195
v  -20.226151 -42.097187 1.325195
v  14.147361 39.596897 1.325195
v  14.147362 19.173376 1.325195
v  14.147362 -1.250145 1.325195
v  14.147362 -21.673666 1.325195
v  14.147363 -42.097187 1.325195
v  48.520874 39.596897 1.325195
v  48.520874 19.173376 1.325195
v  48.520874 -1.250145 1.325195
v  48.520874 -21.673666 1.325195
v  48.520874 -42.097187 1.325195
v  82.894386 39.596897 1.325195
v  82.894386 19.173376 1.325195
v  82.894386 -1.250144 1.325195
v  82.894386 -21.673666 1.325195
v  82.894386 -42.097187 1.325195
# 25 vertices

vn 0.000000 0.000000 1.000000
vn 0.000000 0.000000 1.000000
vn 0.000000 0.000000 1.000000
vn 0.000000 0.000000 1.000000
vn 0.000000 0.000000 1.000000
vn 0.000000 0.000000 1.000000
vn 0.000000 0.000000 1.000000
vn 0.000000 0.000000 1.000000
vn 0.000000 0.000000 1.000000
vn 0.000000 0.000000 1.000000
vn 0.000000 0.000000 1.000000
vn 0.000000 0.000000 1.000000
vn 0.000000 0.000000 1.000000
vn 0.000000 0.000000 1.000000
vn 0.000000 0.000000 1.000000
vn 0.000000 0.000000 1.000000
vn 0.000000 0.000000 1.000000
vn 0.000000 0.000000 1.000000
vn 0.000000 0.000000 1.000000
vn 0.000000 0.000000 1.000000
vn 0.000000 0.000000 1.000000
vn 0.000000 0.000000 1.000000
vn 0.000000 0.000000 1.000000
vn 0.000000 0.000000 1.000000
vn 0.000000 0.000000 1.000000
vn 0.000000 0.000000 1.000000
vn 0.000000 0.000000 1.000000
vn 0.000000 0.000000 1.000000
vn 0.000000 0.000000 1.000000
vn 0.000000 0.000000 1.000000
vn 0.000000 0.000000 1.000000
vn 0.000000 0.000000 1.000000
vn 0.000000 0.000000 1.000000
vn 0.000000 0.000000 1.000000
vn 0.000000 0.000000 1.000000
vn 0.000000 0.000000 1.000000
vn 0.000000 0.000000 1.000000
vn 0.000000 0.000000 1.000000
vn 0.000000 0.000000 1.000000
vn 0.000000 0.000000 1.000000
vn 0.000000 0.000000 1.000000
vn 0.000000 0.000000 1.000000
vn 0.000000 0.000000 1.000000
vn 0.000000 0.000000 1.000000
vn 0.000000 0.000000 1.000000
vn 0.000000 0.000000 1.000000
vn 0.000000 0.000000 1.000000
vn 0.000000 0.000000 1.000000
vn 0.000000 0.000000 1.000000
vn 0.000000 0.000000 1.000000
vn 0.000000 0.000000 1.000000
vn 0.000000 0.000000 1.000000
vn 0.000000 0.000000 1.000000
vn 0.000000 0.000000 1.000000
vn 0.000000 0.000000 1.000000
vn 0.000000 0.000000 1.000000
vn 0.000000 0.000000 1.000000
vn 0.000000 0.000000 1.000000
vn 0.000000 0.000000 1.000000
vn 0.000000 0.000000 1.000000
vn 0.000000 0.000000 1.000000
vn 0.000000 0.000000 1.000000
vn 0.000000 0.000000 1.000000
vn 0.000000 0.000000 1.000000
# 64 vertex normals

g Plane001
s 1
f 1//1 2//2 7//3 6//4 
f 2//5 3//6 8//7 7//8 
f 3//9 4//10 9//11 8//12 
f 4//13 5//14 10//15 9//16 
f 6//17 7//18 12//19 11//20 
f 7//21 8//22 13//23 12//24 
f 8//25 9//26 14//27 13//28 
f 9//29 10//30 15//31 14//32 
f 11//33 12//34 17//35 16//36 
f 12//37 13//38 18//39 17//40 
f 13//41 14//42 19//43 18//44 
f 14//45 15//46 20//47 19//48 
f 16//49 17//50 22//51 21//52 
f 17//53 18//54 23//55 22//56 
f 18//57 19//58 24//59 23//60 
f 19//61 20//62 25//63 24//64 
# 16 polygons

