# 3ds Max Wavefront OBJ Exporter v0.97b - (c)2007 guruware
# File Created: 27.01.2019 13:50:57

#
# object armchair_side
#

v  16.888733 -31.801651 0.000001
v  16.888733 22.211449 0.000001
v  -17.986084 -31.801636 0.000001
v  -17.986084 22.211433 0.000001
v  16.477417 -23.561508 20.596241
v  16.477417 30.451576 20.596239
v  -18.397400 -23.561493 20.596243
v  -18.397400 30.451553 20.596243
v  -6.613922 -31.801636 0.000001
v  -6.613892 22.211433 0.000001
v  -7.025208 30.451553 20.596241
v  -7.025208 -23.561493 20.596241
v  16.888733 11.911316 0.000001
v  16.888733 -21.501511 0.000001
v  16.560547 -14.926903 16.433243
v  -6.997833 19.602829 19.225040
v  -6.997803 -13.809959 19.225040
v  16.249969 -19.004532 31.986429
v  -7.252655 -8.704399 31.986427
v  -7.252655 24.708412 31.986429
v  16.249969 35.008537 31.986429
v  -7.252655 35.008537 31.986429
v  -18.664307 35.799065 33.962379
v  -18.664307 -18.214005 33.962372
v  -18.857056 39.661079 43.615479
v  -18.857056 -14.351990 43.615479
v  -7.484863 -14.351990 43.615486
v  -7.559021 38.368629 47.328506
v  -18.931213 38.368637 47.328506
v  -18.931213 -10.088554 47.328506
v  -7.559021 -10.088554 47.328506
v  -7.540497 40.080727 46.400246
v  -18.912689 40.080727 46.400246
v  -18.912689 -12.543358 46.400246
v  -7.540497 -12.543358 46.400246
v  16.210510 -16.735664 33.962379
v  16.210510 -9.392174 33.962379
v  -7.292114 -9.392174 33.962372
v  -7.292114 26.977272 33.962372
v  16.210510 26.977272 33.962372
v  16.210510 34.320755 33.962372
v  -7.484894 39.661079 43.615479
v  -7.292114 34.320755 33.962372
v  -7.292114 -16.735664 33.962379
v  -7.252655 -19.004532 31.986429
v  14.416107 -13.809959 19.225040
v  16.249969 -8.704399 31.986429
v  16.249969 24.708412 31.986429
v  14.416107 19.602852 19.225040
v  16.560547 18.485909 16.433247
# 50 vertices

vn 0.000000 0.000000 1.000000
vn 0.000000 0.000000 1.000000
vn 0.000000 0.000000 1.000000
vn 0.000000 0.000000 1.000000
vn 0.999646 -0.000000 0.026595
vn 0.999646 -0.000001 0.026595
vn 0.999646 0.000001 0.026595
vn 0.999646 0.000000 0.026595
vn -0.000000 0.968779 -0.247926
vn -0.000000 0.968779 -0.247926
vn -0.000000 0.968779 -0.247926
vn -0.000000 0.968779 -0.247926
vn -0.000000 -0.968779 0.247926
vn -0.000000 -0.968779 0.247926
vn 0.000000 -0.968779 0.247926
vn 0.000000 -0.968779 0.247926
vn 0.000000 -0.000000 1.000000
vn -0.000000 -0.000000 1.000000
vn 0.000000 -0.000000 1.000000
vn 0.000000 0.000000 1.000000
vn -0.000000 0.968779 -0.247926
vn -0.000000 0.968779 -0.247926
vn -0.000000 0.968779 -0.247926
vn -0.000000 0.968779 -0.247926
vn -0.000000 -0.968779 0.247926
vn -0.000000 -0.968779 0.247926
vn -0.000000 -0.968779 0.247926
vn -0.000000 -0.968779 0.247926
vn 0.000000 0.000000 1.000000
vn 0.000000 0.000000 1.000000
vn 0.000000 0.000000 1.000000
vn 0.000000 0.000000 1.000000
vn -0.000000 0.000001 1.000000
vn 0.000000 0.000000 1.000000
vn -0.000000 0.000000 1.000000
vn -0.000000 0.000001 1.000000
vn 0.999646 -0.000000 0.026595
vn 0.999646 -0.000001 0.026595
vn 0.999646 -0.000001 0.026595
vn 0.999646 -0.000000 0.026595
vn 0.999646 0.000001 0.026595
vn 0.999646 0.000000 0.026595
vn 0.999646 0.000000 0.026595
vn 0.999646 0.000001 0.026595
vn 0.999646 -0.000000 0.026592
vn 0.999646 -0.000000 0.026592
vn 0.999646 -0.000000 0.026592
vn 0.999646 -0.000000 0.026592
vn 0.000000 0.968779 -0.247926
vn 0.000000 0.968779 -0.247926
vn 0.000000 0.968779 -0.247926
vn 0.000000 0.968779 -0.247926
vn 0.000000 -0.968779 0.247926
vn 0.000000 -0.968779 0.247926
vn 0.000000 -0.968779 0.247926
vn 0.000000 -0.968779 0.247926
vn 0.999646 0.000000 0.026592
vn 0.999646 0.000000 0.026592
vn 0.999646 0.000000 0.026592
vn 0.999646 0.000000 0.026592
vn -0.000000 0.968779 -0.247926
vn -0.000000 0.968779 -0.247926
vn -0.000000 0.968779 -0.247926
vn -0.000000 0.968779 -0.247926
vn -0.000000 0.968779 -0.247926
vn -0.000000 0.968779 -0.247926
vn -0.000000 0.968779 -0.247926
vn -0.000000 0.968779 -0.247926
vn 0.000000 -0.968779 0.247925
vn 0.000000 -0.968779 0.247925
vn 0.000000 -0.968779 0.247925
vn 0.000000 -0.968779 0.247925
vn -0.000000 -0.968779 0.247926
vn -0.000000 -0.968779 0.247926
vn -0.000000 -0.968779 0.247926
vn -0.000000 -0.968779 0.247926
vn -0.000000 0.968779 -0.247926
vn -0.000000 0.968779 -0.247926
vn -0.000000 0.968779 -0.247926
vn -0.000000 0.968779 -0.247926
vn 0.000000 -0.968779 0.247926
vn 0.000000 -0.968779 0.247926
vn 0.000000 -0.968779 0.247926
vn 0.000000 -0.968779 0.247926
vn 0.000000 0.646586 0.762841
vn 0.000000 0.646586 0.762841
vn 0.000000 0.646586 0.762841
vn 0.000000 0.646586 0.762841
vn 0.000000 -0.508886 0.860834
vn 0.000000 -0.508886 0.860834
vn 0.000000 -0.508886 0.860834
vn 0.000000 -0.508886 0.860834
vn 0.000000 0.995386 -0.095949
vn 0.000000 0.995386 -0.095949
vn 0.000000 0.995386 -0.095949
vn 0.000000 0.995386 -0.095949
vn -0.000000 -0.923477 0.383654
vn -0.000000 -0.923477 0.383654
vn -0.000000 -0.923477 0.383654
vn -0.000000 -0.923477 0.383654
vn 0.999646 -0.000000 0.026594
vn 0.999646 -0.000000 0.026594
vn 0.999646 -0.000000 0.026594
vn 0.999646 -0.000000 0.026594
vn 0.999646 0.000001 0.026593
vn 0.999646 0.000001 0.026593
vn 0.999646 0.000001 0.026593
vn 0.999646 0.000001 0.026593
vn 0.999646 0.000002 0.026594
vn 0.999646 0.000002 0.026594
vn 0.999646 0.000002 0.026594
vn 0.999646 0.000024 0.026587
vn 0.999646 0.000024 0.026587
vn 0.999646 0.000024 0.026587
vn 0.999646 0.000024 0.026587
vn -0.000000 0.976098 0.217329
vn -0.000000 0.976098 0.217329
vn -0.000000 0.976098 0.217329
vn -0.000000 0.976098 0.217329
vn 0.000000 -0.805961 0.591968
vn 0.000000 -0.805961 0.591968
vn 0.000000 -0.805961 0.591968
vn 0.000000 -0.805961 0.591968
vn 0.000000 0.976098 0.217332
vn 0.000000 0.976098 0.217332
vn 0.000000 0.976098 0.217332
vn 0.000000 0.976098 0.217332
vn 0.000000 -0.805962 0.591967
vn 0.000000 -0.805962 0.591967
vn 0.000000 -0.805962 0.591967
vn 0.000000 -0.805962 0.591967
vn 0.999646 -0.000003 0.026594
vn 0.999646 -0.000003 0.026594
vn 0.999646 -0.000003 0.026594
vn 0.999646 -0.000003 0.026594
vn 0.999646 -0.000000 0.026593
vn 0.999646 -0.000000 0.026593
vn 0.999646 -0.000000 0.026593
vn 0.999646 -0.000000 0.026593
vn 0.999646 0.000003 0.026592
vn 0.999646 0.000003 0.026592
vn 0.999646 0.000003 0.026592
vn 0.999646 0.000003 0.026592
vn 0.999647 0.000020 0.026588
vn 0.999647 0.000020 0.026588
vn 0.999647 0.000020 0.026588
vn 0.999646 0.000000 0.026594
vn 0.999646 0.000000 0.026594
vn 0.999646 0.000000 0.026594
vn 0.999646 0.000000 0.026594
vn 0.999646 0.000000 0.026594
vn 0.999646 0.000000 0.026594
vn 0.999646 0.000000 0.026594
vn 0.999646 0.000000 0.026594
vn 0.000001 0.968779 -0.247926
vn 0.000001 0.968779 -0.247926
vn 0.000001 0.968779 -0.247926
vn -0.000001 -0.968779 0.247926
vn -0.000001 -0.968779 0.247926
vn -0.000001 -0.968779 0.247926
vn 0.698926 -0.000000 0.715194
vn 0.698926 -0.000000 0.715194
vn 0.698926 -0.000000 0.715194
vn 0.698926 -0.000000 0.715194
vn -0.999646 0.000000 -0.026595
vn -0.999646 0.000000 -0.026595
vn -0.999646 0.000000 -0.026595
vn -0.999646 0.000000 -0.026595
vn -0.999646 0.000000 -0.026593
vn -0.999646 0.000000 -0.026593
vn -0.999646 0.000000 -0.026593
vn -0.999646 0.000000 -0.026593
vn -0.999646 0.000000 -0.026591
vn -0.999646 0.000000 -0.026591
vn -0.999646 0.000000 -0.026591
vn -0.999646 0.000000 -0.026591
vn -0.999646 0.000000 -0.026605
vn -0.999646 0.000000 -0.026605
vn -0.999646 0.000000 -0.026605
vn -0.999646 0.000000 -0.026605
vn -0.999647 0.000000 -0.026575
vn -0.999647 0.000000 -0.026575
vn -0.999647 0.000000 -0.026575
vn -0.999647 0.000000 -0.026575
# 184 vertex normals

g armchair_side
s 4
f 49//1 16//2 17//3 46//4 
s 8
f 13//5 50//6 15//7 14//8 
s 16
f 10//9 11//10 6//11 2//12 
s 64
f 9//13 12//14 7//15 3//16 
s 4
f 31//17 28//18 29//19 30//20 
s 16
f 4//21 8//22 11//23 10//24 
s 64
f 1//25 5//26 12//27 9//28 
s 4
f 41//29 43//30 39//31 40//32 
f 44//33 36//34 37//35 38//36 
s 8
f 2//37 6//38 50//39 13//40 
f 5//41 1//42 14//43 15//44 
s off
f 5//45 15//46 47//47 18//48 
f 46//49 17//50 19//51 47//52 
f 16//53 49//54 48//55 20//56 
f 48//57 50//58 6//59 21//60 
f 6//61 11//62 22//63 21//64 
f 11//65 8//66 23//67 22//68 
f 7//69 12//70 45//71 24//72 
f 12//73 5//74 18//75 45//76 
f 22//77 23//78 25//79 42//80 
f 24//81 45//82 27//83 26//84 
f 33//85 29//86 28//87 32//88 
f 35//89 31//90 30//91 34//92 
f 25//93 33//94 32//95 42//96 
f 27//97 35//98 34//99 26//100 
f 20//101 39//102 38//103 19//104 
f 19//105 17//106 16//107 20//108 
f 22//109 42//110 43//111 
f 44//112 35//113 27//114 45//115 
f 37//116 47//117 19//118 38//119 
f 39//120 20//121 48//122 40//123 
f 41//124 21//125 22//126 43//127 
f 44//128 45//129 18//130 36//131 
f 44//132 38//133 31//134 35//135 
f 39//136 28//137 31//138 38//139 
f 43//140 32//141 28//142 39//143 
f 43//144 42//145 32//146 
f 37//147 36//148 18//149 47//150 
f 41//151 40//152 48//153 21//154 
f 15//155 46//156 47//157 
f 48//158 49//159 50//160 
f 46//161 15//162 50//163 49//164 
s 1
f 7//165 8//166 4//167 3//168 
s off
f 7//169 24//170 23//171 8//172 
f 26//173 25//174 23//175 24//176 
f 34//177 33//178 25//179 26//180 
f 34//181 30//182 29//183 33//184 
# 43 polygons - 4 triangles

