# 3ds Max Wavefront OBJ Exporter v0.97b - (c)2007 guruware
# File Created: 27.01.2019 13:50:38

#
# object armchair
#

v  -39.482758 -19.852478 0.000003
v  14.530350 -19.852478 0.000003
v  -39.482727 15.022331 0.000003
v  14.530334 15.022324 0.000003
v  -39.482758 -10.502754 20.596245
v  14.530350 -10.502754 20.596243
v  -39.482727 24.372078 20.596247
v  14.530334 24.372078 20.596247
v  -39.482727 3.650139 0.000003
v  14.530334 3.650139 0.000003
v  14.530334 12.999878 20.596243
v  -39.482727 12.999886 20.596245
v  4.230209 -19.852478 0.000003
v  -29.182617 -19.852478 0.000003
v  -29.182617 -12.392563 16.433249
v  4.230194 12.377426 19.225044
v  -29.182587 12.377426 19.225046
v  -39.482758 -5.332130 31.986435
v  -29.182617 18.170502 31.986431
v  4.230209 18.170509 31.986435
v  14.530350 -5.332130 31.986435
v  14.530334 18.170509 31.986435
v  14.530334 30.439674 33.962387
v  -39.482727 30.439674 33.962379
v  4.230209 25.135101 47.328506
v  14.530334 34.821739 43.615494
v  4.230209 36.507286 47.328522
v  -29.182617 36.507286 47.328522
v  -39.482727 34.821739 43.615494
v  -39.482727 23.449547 43.615494
v  -29.182617 25.135094 47.328522
v  11.752396 25.135094 47.328522
v  11.752396 36.507286 47.328522
v  -36.704803 36.507286 47.328522
v  -36.704803 25.135094 47.328506
v  13.835861 24.713699 46.400261
v  13.835861 36.085892 46.400261
v  -38.788239 36.085892 46.400261
v  -38.788239 24.713699 46.400261
v  -38.004425 -4.435143 33.962379
v  -30.660919 -4.435143 33.962379
v  -30.660919 19.067497 33.962379
v  5.708527 19.067497 33.962379
v  5.708527 -4.435143 33.962379
v  13.052032 -4.435143 33.962379
v  14.530334 23.449554 43.615494
v  13.052017 19.067497 33.962379
v  -38.004425 19.067490 33.962379
v  -39.482727 18.170502 31.986435
v  -29.182617 -9.036514 19.225044
v  -29.182617 -5.332130 31.986435
v  4.230209 -5.332130 31.986435
v  4.230209 -9.036514 19.225046
v  4.230209 -12.392563 16.433249
# 54 vertices

vn 0.000000 0.000000 1.000000
vn 0.000000 0.000000 1.000000
vn -0.000000 -0.000000 1.000000
vn -0.000000 -0.000000 1.000000
vn 0.000000 -0.960332 0.278858
vn 0.000000 -0.960332 0.278858
vn -0.000000 -0.960332 0.278858
vn -0.000000 -0.960332 0.278858
vn 1.000000 0.000001 -0.000000
vn 1.000000 0.000001 -0.000000
vn 1.000000 0.000001 -0.000000
vn 1.000000 0.000001 -0.000000
vn -1.000000 0.000002 -0.000000
vn -1.000000 0.000001 -0.000000
vn -1.000000 0.000000 0.000000
vn -1.000000 0.000000 0.000000
vn 0.000000 -0.000000 1.000000
vn -0.000000 -0.000000 1.000000
vn -0.000000 -0.000001 1.000000
vn -0.000000 -0.000001 1.000000
vn 1.000000 0.000000 0.000000
vn 1.000000 0.000000 0.000000
vn 1.000000 0.000001 -0.000000
vn 1.000000 0.000001 -0.000000
vn -1.000000 0.000003 -0.000001
vn -1.000000 0.000003 -0.000001
vn -1.000000 0.000001 -0.000000
vn -1.000000 0.000002 -0.000000
vn 0.000000 0.000000 1.000000
vn 0.000000 0.000000 1.000000
vn 0.000000 0.000000 1.000000
vn 0.000000 0.000000 1.000000
vn -0.000000 0.000000 1.000000
vn 0.000000 0.000000 1.000000
vn -0.000000 0.000000 1.000000
vn -0.000000 0.000000 1.000000
vn 0.000000 -0.960332 0.278858
vn 0.000000 -0.960332 0.278859
vn 0.000000 -0.960332 0.278858
vn 0.000000 -0.960332 0.278858
vn -0.000000 -0.960332 0.278858
vn 0.000000 -0.960332 0.278858
vn -0.000000 -0.960332 0.278858
vn -0.000000 -0.960332 0.278858
vn -0.000001 -0.000001 1.000000
vn -0.000001 -0.000001 1.000000
vn -0.000000 -0.000000 1.000000
vn 0.000000 -0.000000 1.000000
vn -0.000000 -0.000001 1.000000
vn 0.000000 0.000000 1.000000
vn -0.000000 -0.000001 1.000000
vn -0.000000 -0.000001 1.000000
vn 0.000000 -0.960332 0.278859
vn 0.000000 -0.960332 0.278859
vn 0.000000 -0.960332 0.278859
vn 0.000000 -0.960332 0.278859
vn 1.000000 -0.000001 0.000002
vn 1.000000 -0.000001 0.000002
vn 1.000000 -0.000001 0.000002
vn 1.000000 -0.000001 0.000002
vn -1.000000 -0.000001 0.000001
vn -1.000000 -0.000001 0.000001
vn -1.000000 -0.000001 0.000001
vn -1.000000 -0.000001 0.000001
vn -0.000000 -0.960332 0.278859
vn -0.000000 -0.960332 0.278859
vn -0.000000 -0.960332 0.278859
vn -0.000000 -0.960332 0.278859
vn 1.000000 0.000001 -0.000000
vn 1.000000 0.000001 -0.000000
vn 1.000000 0.000001 -0.000000
vn 1.000000 0.000001 -0.000000
vn 1.000000 0.000000 0.000000
vn 1.000000 0.000000 0.000000
vn 1.000000 0.000000 0.000000
vn 1.000000 0.000000 0.000000
vn -1.000000 0.000000 0.000000
vn -1.000000 0.000000 0.000000
vn -1.000000 0.000000 0.000000
vn -1.000000 0.000000 0.000000
vn -1.000000 0.000003 -0.000001
vn -1.000000 0.000003 -0.000001
vn -1.000000 0.000003 -0.000001
vn -1.000000 0.000003 -0.000001
vn -0.000001 -0.960332 0.278859
vn -0.000001 -0.960332 0.278859
vn -0.000001 -0.960332 0.278859
vn 1.000000 0.000000 0.000000
vn 1.000000 0.000000 0.000000
vn 1.000000 0.000000 0.000000
vn 1.000000 0.000000 0.000000
vn -1.000000 0.000000 0.000000
vn -1.000000 0.000000 0.000000
vn -1.000000 0.000000 0.000000
vn -1.000000 0.000000 0.000000
vn 0.317175 0.000000 0.948367
vn 0.317175 0.000000 0.948367
vn 0.317175 0.000000 0.948367
vn 0.317175 0.000000 0.948367
vn -0.317176 -0.000000 0.948367
vn -0.317176 -0.000000 0.948367
vn -0.317176 -0.000000 0.948367
vn -0.317176 -0.000000 0.948367
vn 0.948999 0.000000 0.315278
vn 0.948999 0.000000 0.315278
vn 0.948999 0.000000 0.315278
vn 0.948999 0.000000 0.315278
vn -0.948997 0.000000 0.315285
vn -0.948997 0.000000 0.315285
vn -0.948997 0.000000 0.315285
vn -0.948997 0.000000 0.315285
vn 0.000000 -0.960332 0.278861
vn 0.000000 -0.960332 0.278861
vn 0.000000 -0.960332 0.278861
vn 0.000000 -0.960332 0.278861
vn 0.000000 -0.960332 0.278859
vn 0.000000 -0.960332 0.278859
vn 0.000000 -0.960332 0.278859
vn 0.000000 -0.960332 0.278859
vn -0.000001 -0.960332 0.278859
vn -0.000001 -0.960332 0.278859
vn -0.000001 -0.960332 0.278859
vn 0.000001 -0.960332 0.278859
vn 0.000001 -0.960332 0.278859
vn 0.000001 -0.960332 0.278859
vn 0.000001 -0.960332 0.278859
vn 0.708286 0.000000 0.705925
vn 0.708286 0.000000 0.705925
vn 0.708286 0.000000 0.705925
vn 0.708286 0.000000 0.705925
vn -0.708282 0.000000 0.705930
vn -0.708282 0.000000 0.705930
vn -0.708282 0.000000 0.705930
vn -0.708282 0.000000 0.705930
vn 0.708282 0.000001 0.705929
vn 0.708282 0.000001 0.705929
vn 0.708282 0.000001 0.705929
vn 0.708282 0.000001 0.705929
vn -0.708282 0.000001 0.705929
vn -0.708282 0.000001 0.705929
vn -0.708282 0.000001 0.705929
vn -0.708282 0.000001 0.705929
vn 0.000000 -0.960332 0.278858
vn 0.000000 -0.960332 0.278858
vn 0.000000 -0.960332 0.278858
vn 0.000000 -0.960332 0.278858
vn 0.000001 -0.960332 0.278859
vn 0.000001 -0.960332 0.278859
vn 0.000001 -0.960332 0.278859
vn 0.000001 -0.960332 0.278859
vn -0.000000 -0.960332 0.278858
vn -0.000000 -0.960332 0.278858
vn -0.000000 -0.960332 0.278858
vn -0.000000 -0.960332 0.278858
vn -0.000000 -0.960332 0.278858
vn -0.000000 -0.960332 0.278858
vn -0.000000 -0.960332 0.278858
vn 0.000002 -0.960332 0.278858
vn 0.000002 -0.960332 0.278858
vn 0.000002 -0.960332 0.278858
vn 0.000000 -0.960332 0.278859
vn 0.000000 -0.960332 0.278859
vn 0.000000 -0.960332 0.278859
vn 0.000000 -0.960332 0.278859
vn 0.000000 -0.960332 0.278860
vn 0.000000 -0.960332 0.278860
vn 0.000000 -0.960332 0.278860
vn 0.000000 -0.960332 0.278860
vn 1.000000 0.000000 0.000000
vn 1.000000 0.000000 0.000000
vn 1.000000 0.000000 0.000000
vn -1.000000 0.000000 0.000000
vn -1.000000 0.000000 0.000000
vn -1.000000 0.000000 0.000000
vn -0.000000 -0.792733 0.609569
vn -0.000000 -0.792733 0.609569
vn -0.000000 -0.792733 0.609569
vn -0.000000 -0.792733 0.609569
# 178 vertex normals

g armchair
s 4
f 53//1 16//2 17//3 50//4 
s 8
f 13//5 54//6 15//7 14//8 
s 16
f 10//9 11//10 6//11 2//12 
s 64
f 9//13 12//14 7//15 3//16 
s 4
f 28//17 31//18 25//19 27//20 
s 16
f 4//21 8//22 11//23 10//24 
s 64
f 1//25 5//26 12//27 9//28 
s 4
f 45//29 47//30 43//31 44//32 
f 48//33 40//34 41//35 42//36 
s 8
f 2//37 6//38 54//39 13//40 
f 5//41 1//42 14//43 15//44 
s 4
f 34//45 35//46 31//47 28//48 
f 32//49 33//50 27//51 25//52 
s off
f 5//53 15//54 51//55 18//56 
f 50//57 17//58 19//59 51//60 
f 16//61 53//62 52//63 20//64 
f 52//65 54//66 6//67 21//68 
f 6//69 11//70 22//71 21//72 
f 11//73 8//74 23//75 22//76 
f 7//77 12//78 49//79 24//80 
f 12//81 5//82 18//83 49//84 
f 43//85 32//86 25//87 
f 22//88 23//89 26//90 46//91 
f 24//92 49//93 30//94 29//95 
f 37//96 33//97 32//98 36//99 
f 39//100 35//101 34//102 38//103 
f 26//104 37//105 36//106 46//107 
f 30//108 39//109 38//110 29//111 
f 20//112 43//113 42//114 19//115 
f 19//116 17//117 16//118 20//119 
f 22//120 46//121 47//122 
f 48//123 39//124 30//125 49//126 
f 41//127 51//128 19//129 42//130 
f 43//131 20//132 52//133 44//134 
f 45//135 21//136 22//137 47//138 
f 48//139 49//140 18//141 40//142 
f 43//143 25//144 31//145 42//146 
f 48//147 42//148 35//149 39//150 
f 42//151 31//152 35//153 
f 47//154 36//155 32//156 43//157 
f 47//158 46//159 36//160 
f 41//161 40//162 18//163 51//164 
f 45//165 44//166 52//167 21//168 
f 15//169 50//170 51//171 
f 52//172 53//173 54//174 
f 50//175 15//176 54//177 53//178 
# 40 polygons - 6 triangles

